# xmcd
#
# Track frame offsets:
#  150
#  19903
#  38851
#  66099
#  108498
#  129951
#  158195
#  195120
#  217732
#  239879
#  260579
#  288174
#  311434
#
# Disc length: 4414 seconds
#
# Revision: 2
# Processed by: cddbd v1.5.2PL0 Copyright (c) Steve Scherf et al.
# Submitted via: Collectorz.com_Music_Collector 6.11
#
DISCID=b1113c0d
DTITLE=Eric Clapton - Chicago No Bad Blues (2CDs) [CD1)
DYEAR=1995
DGENRE=Blues
TTITLE0=Tulsa Time
TTITLE1=Motherless Children
TTITLE2=I Shot The Sheriff
TTITLE3=Same Old Blues
TTITLE4=Tangled In Love
TTITLE5=White Room
TTITLE6=Steppin' Out
TTITLE7=Wonderful Tonight
TTITLE8=She's Waiting
TTITLE9=She Loves You
TTITLE10=Badge
TTITLE11=Let It Rain
TTITLE12=DoubleTrouble
EXTD=
EXTT0=
EXTT1=
EXTT2=
EXTT3=
EXTT4=
EXTT5=
EXTT6=
EXTT7=
EXTT8=
EXTT9=
EXTT10=
EXTT11=
EXTT12=
PLAYORDER=
